<svg width="137" height="40" viewBox="0 0 137 40" fill="none" xmlns="http://www.w3.org/2000/svg">
<path d="M39.9999 0V0C34.4771 -4.82821e-07 29.9999 4.47713 29.9999 9.99996V9.99996L39.9999 9.99996L39.9999 0Z" fill="#EF8B2C"/>
<path d="M30 20V20C35.5229 20 40 15.5228 40 10V10L30 10L30 20Z" fill="#A2B86C"/>
<path d="M30.0001 30V30C24.4772 30 20.0001 34.4772 20.0001 40V40L30.0001 40L30.0001 30Z" fill="#A28B2C"/>
<path d="M30 20V20C24.4771 20 20 24.4771 20 30V30L30 30L30 20Z" fill="#A2B86C"/>
<path d="M30 10V10C30 4.47717 25.5228 3.7389e-05 20 3.76304e-05V3.76304e-05L20 10L30 10Z" fill="#EF8B2C"/>
<path d="M20 10V10C20 15.5228 24.4771 20 30 20V20L30 10L20 10Z" fill="#A28B2C"/>
<path d="M40 39.9999V39.9999C40 34.4771 35.5229 30 30.0001 30V30L30.0001 39.9999L40 39.9999Z" fill="#A2B86C"/>
<path d="M40 30V30C40 24.4771 35.5229 20 30 20V20L30 30L40 30Z" fill="#EF8B2C"/>
<path d="M10 10V10C15.5228 10 20 5.52287 20 4.48227e-05V4.48227e-05L10 4.48227e-05L10 10Z" fill="#A2B86C"/>
<path d="M10 20V20C15.5229 20 20 15.5228 20 9.99998V9.99998L10 9.99998L10 20Z" fill="#EF8B2C"/>
<path d="M20 30V30C20 24.4771 15.5229 20 10.0001 20V20L10.0001 30L20 30Z" fill="#A2B86C"/>
<path d="M10 39.9999V39.9999C15.5228 39.9999 20 35.5228 20 30V30H10L10 39.9999Z" fill="#A2B86C"/>
<path d="M7.62939e-05 0.00012207V0.00012207C7.60525e-05 5.52295 4.47721 10.0001 10 10.0001V10.0001L10 0.000122507L7.62939e-05 0.00012207Z" fill="#A28B2C"/>
<path d="M0 9.99997V9.99997C-2.4141e-07 15.5228 4.47713 20 9.99996 20V20L9.99996 9.99997L0 9.99997Z" fill="#A2B86C"/>
<path d="M10 20V20C4.47717 20 3.77556e-05 24.4771 3.72727e-05 30V30L10 30L10 20Z" fill="#EF8B2C"/>
<path d="M9.15527e-05 30V30C9.16186e-05 35.5228 4.47722 40 10.0001 40V40L10.0001 30L9.15527e-05 30Z" fill="#A28B2C"/>
<path d="M49.5315 14.0899C48.9465 14.0899 48.4327 13.9774 47.9902 13.7524C47.5477 13.5199 47.2065 13.1974 46.9665 12.7849C46.7265 12.3725 46.6065 11.8962 46.6065 11.3562V8.75746C46.6065 8.21746 46.7265 7.74122 46.9665 7.32872C47.2065 6.91622 47.5477 6.59747 47.9902 6.37247C48.4327 6.14747 48.9465 6.03497 49.5315 6.03497C50.109 6.03497 50.6152 6.14372 51.0502 6.36122C51.4927 6.57122 51.834 6.87497 52.074 7.27247C52.3215 7.66247 52.4452 8.11622 52.4452 8.63371C52.4452 8.70121 52.4002 8.74246 52.3102 8.75746L50.994 8.83621H50.9715C50.8965 8.83621 50.859 8.79496 50.859 8.71246C50.859 8.31496 50.7352 7.99622 50.4877 7.75622C50.2477 7.51622 49.929 7.39622 49.5315 7.39622C49.1265 7.39622 48.8002 7.51622 48.5527 7.75622C48.3127 7.99622 48.1927 8.31496 48.1927 8.71246V11.4237C48.1927 11.8137 48.3127 12.1287 48.5527 12.3687C48.8002 12.6087 49.1265 12.7287 49.5315 12.7287C49.929 12.7287 50.2477 12.6087 50.4877 12.3687C50.7352 12.1287 50.859 11.8137 50.859 11.4237C50.859 11.3412 50.904 11.3 50.994 11.3L52.3102 11.3562C52.3477 11.3562 52.3777 11.3675 52.4002 11.39C52.4302 11.4125 52.4452 11.4387 52.4452 11.4687C52.4452 11.9862 52.3215 12.4437 52.074 12.8412C51.834 13.2387 51.4927 13.5462 51.0502 13.7637C50.6152 13.9812 50.109 14.0899 49.5315 14.0899Z" fill="black"/>
<path d="M59.1097 14.1237C58.5247 14.1237 58.0072 14.0037 57.5572 13.7637C57.1147 13.5237 56.7697 13.1899 56.5222 12.7624C56.2747 12.3275 56.1509 11.8287 56.1509 11.2662V8.85871C56.1509 8.30371 56.2747 7.81247 56.5222 7.38497C56.7697 6.95747 57.1147 6.62747 57.5572 6.39497C58.0072 6.15497 58.5247 6.03497 59.1097 6.03497C59.7022 6.03497 60.2197 6.15497 60.6622 6.39497C61.1122 6.62747 61.4609 6.95747 61.7084 7.38497C61.9559 7.81247 62.0796 8.30371 62.0796 8.85871V11.2662C62.0796 11.8287 61.9559 12.3275 61.7084 12.7624C61.4609 13.1974 61.1122 13.5349 60.6622 13.7749C60.2197 14.0074 59.7022 14.1237 59.1097 14.1237ZM59.1097 12.7624C59.5222 12.7624 59.8559 12.6312 60.1109 12.3687C60.3659 12.1062 60.4934 11.7575 60.4934 11.3225V8.84746C60.4934 8.41246 60.3659 8.06372 60.1109 7.80122C59.8634 7.53122 59.5297 7.39622 59.1097 7.39622C58.6972 7.39622 58.3634 7.53122 58.1084 7.80122C57.8609 8.06372 57.7372 8.41246 57.7372 8.84746V11.3225C57.7372 11.7575 57.8609 12.1062 58.1084 12.3687C58.3634 12.6312 58.6972 12.7624 59.1097 12.7624Z" fill="black"/>
<path d="M70.5182 6.25997C70.5182 6.22247 70.5294 6.19247 70.5519 6.16997C70.5819 6.13997 70.6157 6.12497 70.6532 6.12497H71.9694C72.0069 6.12497 72.0369 6.13997 72.0594 6.16997C72.0894 6.19247 72.1044 6.22247 72.1044 6.25997V13.8649C72.1044 13.9024 72.0894 13.9362 72.0594 13.9662C72.0369 13.9887 72.0069 13.9999 71.9694 13.9999H70.6982C70.6232 13.9999 70.5707 13.9699 70.5407 13.9099L67.6269 9.09496C67.6119 9.07246 67.5969 9.06496 67.5819 9.07246C67.5669 9.07246 67.5594 9.08746 67.5594 9.11746L67.5819 13.8649C67.5819 13.9024 67.5669 13.9362 67.5369 13.9662C67.5144 13.9887 67.4844 13.9999 67.4469 13.9999H66.1307C66.0932 13.9999 66.0594 13.9887 66.0294 13.9662C66.0069 13.9362 65.9957 13.9024 65.9957 13.8649V6.25997C65.9957 6.22247 66.0069 6.19247 66.0294 6.16997C66.0594 6.13997 66.0932 6.12497 66.1307 6.12497H67.4019C67.4769 6.12497 67.5294 6.15497 67.5594 6.21497L70.4619 11.0075C70.4769 11.03 70.4919 11.0412 70.5069 11.0412C70.5219 11.0337 70.5294 11.015 70.5294 10.985L70.5182 6.25997Z" fill="black"/>
<path d="M78.8773 14.0899C78.2773 14.0899 77.7523 13.9962 77.3023 13.8087C76.8523 13.6137 76.5036 13.3399 76.2561 12.9874C76.0161 12.6274 75.8961 12.2112 75.8961 11.7387V11.4912C75.8961 11.4537 75.9073 11.4237 75.9298 11.4012C75.9598 11.3712 75.9936 11.3562 76.0311 11.3562H77.3136C77.3511 11.3562 77.3811 11.3712 77.4036 11.4012C77.4336 11.4237 77.4486 11.4537 77.4486 11.4912V11.66C77.4486 11.96 77.5873 12.215 77.8648 12.425C78.1423 12.6274 78.5173 12.7287 78.9898 12.7287C79.3873 12.7287 79.6836 12.6462 79.8786 12.4812C80.0736 12.3087 80.1711 12.0987 80.1711 11.8512C80.1711 11.6712 80.1111 11.5212 79.9911 11.4012C79.8711 11.2737 79.7061 11.165 79.4961 11.075C79.2936 10.9775 78.9673 10.8462 78.5173 10.6812C78.0148 10.5087 77.5873 10.3325 77.2348 10.1525C76.8898 9.97246 76.5973 9.72871 76.3573 9.42121C76.1248 9.10621 76.0086 8.71996 76.0086 8.26246C76.0086 7.81247 76.1248 7.41872 76.3573 7.08122C76.5898 6.74372 76.9123 6.48497 77.3248 6.30497C77.7373 6.12497 78.2136 6.03497 78.7536 6.03497C79.3236 6.03497 79.8298 6.13622 80.2723 6.33872C80.7223 6.54122 81.0711 6.82622 81.3186 7.19372C81.5736 7.55372 81.7011 7.97372 81.7011 8.45371V8.62246C81.7011 8.65996 81.6861 8.69371 81.6561 8.72371C81.6336 8.74621 81.6036 8.75746 81.5661 8.75746H80.2723C80.2348 8.75746 80.2011 8.74621 80.1711 8.72371C80.1486 8.69371 80.1373 8.65996 80.1373 8.62246V8.53246C80.1373 8.21747 80.0061 7.95122 79.7436 7.73372C79.4886 7.50872 79.1361 7.39622 78.6861 7.39622C78.3336 7.39622 78.0561 7.47122 77.8536 7.62122C77.6586 7.77122 77.5611 7.97747 77.5611 8.23997C77.5611 8.42746 77.6173 8.58496 77.7298 8.71246C77.8498 8.83996 78.0223 8.95621 78.2473 9.06121C78.4798 9.15871 78.8361 9.29371 79.3161 9.46621C79.8486 9.66121 80.2648 9.83371 80.5648 9.98371C80.8723 10.1337 81.1461 10.3587 81.3861 10.6587C81.6336 10.9512 81.7573 11.3337 81.7573 11.8062C81.7573 12.5112 81.4986 13.0699 80.9811 13.4824C80.4636 13.8874 79.7623 14.0899 78.8773 14.0899Z" fill="black"/>
<path d="M88.3692 14.1237C87.7842 14.1237 87.2667 14.0037 86.8167 13.7637C86.3742 13.5237 86.0292 13.1899 85.7817 12.7624C85.5342 12.3275 85.4105 11.8287 85.4105 11.2662V8.85871C85.4105 8.30371 85.5342 7.81247 85.7817 7.38497C86.0292 6.95747 86.3742 6.62747 86.8167 6.39497C87.2667 6.15497 87.7842 6.03497 88.3692 6.03497C88.9617 6.03497 89.4792 6.15497 89.9217 6.39497C90.3717 6.62747 90.7205 6.95747 90.968 7.38497C91.2155 7.81247 91.3392 8.30371 91.3392 8.85871V11.2662C91.3392 11.8287 91.2155 12.3275 90.968 12.7624C90.7205 13.1974 90.3717 13.5349 89.9217 13.7749C89.4792 14.0074 88.9617 14.1237 88.3692 14.1237ZM88.3692 12.7624C88.7817 12.7624 89.1155 12.6312 89.3705 12.3687C89.6255 12.1062 89.753 11.7575 89.753 11.3225V8.84746C89.753 8.41246 89.6255 8.06372 89.3705 7.80122C89.123 7.53122 88.7892 7.39622 88.3692 7.39622C87.9567 7.39622 87.623 7.53122 87.368 7.80122C87.1205 8.06372 86.9967 8.41246 86.9967 8.84746V11.3225C86.9967 11.7575 87.1205 12.1062 87.368 12.3687C87.623 12.6312 87.9567 12.7624 88.3692 12.7624Z" fill="black"/>
<path d="M99.5752 13.9999C99.5002 13.9999 99.4477 13.9662 99.4177 13.8987L98.0115 10.7825C97.9965 10.7525 97.974 10.7375 97.944 10.7375H96.8977C96.8602 10.7375 96.8415 10.7562 96.8415 10.7937V13.8649C96.8415 13.9024 96.8265 13.9362 96.7965 13.9662C96.774 13.9887 96.744 13.9999 96.7065 13.9999H95.3902C95.3527 13.9999 95.319 13.9887 95.289 13.9662C95.2665 13.9362 95.2552 13.9024 95.2552 13.8649V6.25997C95.2552 6.22247 95.2665 6.19247 95.289 6.16997C95.319 6.13997 95.3527 6.12497 95.3902 6.12497H98.6077C99.0877 6.12497 99.5077 6.22247 99.8677 6.41747C100.235 6.61247 100.516 6.88997 100.711 7.24997C100.914 7.60997 101.015 8.02622 101.015 8.49871C101.015 9.00871 100.888 9.44746 100.633 9.81496C100.378 10.175 100.021 10.43 99.564 10.58C99.5265 10.595 99.5152 10.6212 99.5302 10.6587L101.06 13.8424C101.075 13.8724 101.083 13.8949 101.083 13.9099C101.083 13.9699 101.041 13.9999 100.959 13.9999H99.5752ZM96.8977 7.48622C96.8602 7.48622 96.8415 7.50497 96.8415 7.54247V9.46621C96.8415 9.50371 96.8602 9.52246 96.8977 9.52246H98.3715C98.6865 9.52246 98.9415 9.42871 99.1365 9.24121C99.339 9.05371 99.4402 8.80996 99.4402 8.50996C99.4402 8.20997 99.339 7.96622 99.1365 7.77872C98.9415 7.58372 98.6865 7.48622 98.3715 7.48622H96.8977Z" fill="black"/>
<path d="M110.288 6.12497C110.326 6.12497 110.356 6.13997 110.378 6.16997C110.408 6.19247 110.423 6.22247 110.423 6.25997V7.36247C110.423 7.39997 110.408 7.43372 110.378 7.46372C110.356 7.48622 110.326 7.49747 110.288 7.49747H108.275C108.237 7.49747 108.218 7.51622 108.218 7.55372V13.8649C108.218 13.9024 108.203 13.9362 108.173 13.9662C108.151 13.9887 108.121 13.9999 108.083 13.9999H106.767C106.73 13.9999 106.696 13.9887 106.666 13.9662C106.643 13.9362 106.632 13.9024 106.632 13.8649V7.55372C106.632 7.51622 106.613 7.49747 106.576 7.49747H104.618C104.581 7.49747 104.547 7.48622 104.517 7.46372C104.495 7.43372 104.483 7.39997 104.483 7.36247V6.25997C104.483 6.22247 104.495 6.19247 104.517 6.16997C104.547 6.13997 104.581 6.12497 104.618 6.12497H110.288Z" fill="black"/>
<path d="M114.27 13.9999C114.233 13.9999 114.199 13.9887 114.169 13.9662C114.147 13.9362 114.135 13.9024 114.135 13.8649V6.25997C114.135 6.22247 114.147 6.19247 114.169 6.16997C114.199 6.13997 114.233 6.12497 114.27 6.12497H115.587C115.624 6.12497 115.654 6.13997 115.677 6.16997C115.707 6.19247 115.722 6.22247 115.722 6.25997V13.8649C115.722 13.9024 115.707 13.9362 115.677 13.9662C115.654 13.9887 115.624 13.9999 115.587 13.9999H114.27Z" fill="black"/>
<path d="M122.648 14.0899C122.071 14.0899 121.561 13.9774 121.118 13.7524C120.683 13.5274 120.342 13.2124 120.094 12.8074C119.854 12.395 119.734 11.9225 119.734 11.39V6.25997C119.734 6.22247 119.746 6.19247 119.768 6.16997C119.798 6.13997 119.832 6.12497 119.869 6.12497H121.186C121.223 6.12497 121.253 6.13997 121.276 6.16997C121.306 6.19247 121.321 6.22247 121.321 6.25997V11.4012C121.321 11.7987 121.441 12.1212 121.681 12.3687C121.928 12.6087 122.251 12.7287 122.648 12.7287C123.046 12.7287 123.364 12.6087 123.604 12.3687C123.852 12.1212 123.976 11.7987 123.976 11.4012V6.25997C123.976 6.22247 123.987 6.19247 124.009 6.16997C124.039 6.13997 124.073 6.12497 124.111 6.12497H125.427C125.464 6.12497 125.494 6.13997 125.517 6.16997C125.547 6.19247 125.562 6.22247 125.562 6.25997V11.39C125.562 11.9225 125.438 12.395 125.191 12.8074C124.951 13.2124 124.609 13.5274 124.167 13.7524C123.732 13.9774 123.226 14.0899 122.648 14.0899Z" fill="black"/>
<path d="M134.628 6.21497C134.666 6.15497 134.718 6.12497 134.786 6.12497H136.102C136.14 6.12497 136.17 6.13997 136.192 6.16997C136.222 6.19247 136.237 6.22247 136.237 6.25997V13.8649C136.237 13.9024 136.222 13.9362 136.192 13.9662C136.17 13.9887 136.14 13.9999 136.102 13.9999H134.786C134.748 13.9999 134.715 13.9887 134.685 13.9662C134.662 13.9362 134.651 13.9024 134.651 13.8649V8.90371C134.651 8.87371 134.643 8.85871 134.628 8.85871C134.613 8.85871 134.598 8.86996 134.583 8.89246L133.391 10.76C133.353 10.82 133.301 10.85 133.233 10.85H132.57C132.502 10.85 132.45 10.82 132.412 10.76L131.22 8.89246C131.205 8.86996 131.19 8.86246 131.175 8.86996C131.16 8.86996 131.152 8.88496 131.152 8.91496V13.8649C131.152 13.9024 131.137 13.9362 131.107 13.9662C131.085 13.9887 131.055 13.9999 131.017 13.9999H129.701C129.663 13.9999 129.63 13.9887 129.6 13.9662C129.577 13.9362 129.566 13.9024 129.566 13.8649V6.25997C129.566 6.22247 129.577 6.19247 129.6 6.16997C129.63 6.13997 129.663 6.12497 129.701 6.12497H131.017C131.085 6.12497 131.137 6.15497 131.175 6.21497L132.862 8.83621C132.885 8.88121 132.907 8.88121 132.93 8.83621L134.628 6.21497Z" fill="black"/>
<path d="M52.0267 20.0899C52.0267 20.1233 52.0134 20.1533 51.9867 20.1799C51.9667 20.1999 51.94 20.2099 51.9067 20.2099H48.6367C48.6034 20.2099 48.5867 20.2266 48.5867 20.2599V21.8099C48.5867 21.8432 48.6034 21.8599 48.6367 21.8599H50.7867C50.82 21.8599 50.8467 21.8732 50.8667 21.8999C50.8934 21.9199 50.9067 21.9466 50.9067 21.9799V22.9499C50.9067 22.9832 50.8934 23.0132 50.8667 23.0399C50.8467 23.0599 50.82 23.0699 50.7867 23.0699H48.6367C48.6034 23.0699 48.5867 23.0866 48.5867 23.1199V25.8799C48.5867 25.9132 48.5734 25.9432 48.5467 25.9699C48.5267 25.9899 48.5 25.9999 48.4667 25.9999H47.2967C47.2634 25.9999 47.2334 25.9899 47.2067 25.9699C47.1867 25.9432 47.1767 25.9132 47.1767 25.8799V19.1199C47.1767 19.0866 47.1867 19.0599 47.2067 19.0399C47.2334 19.0133 47.2634 18.9999 47.2967 18.9999H51.9067C51.94 18.9999 51.9667 19.0133 51.9867 19.0399C52.0134 19.0599 52.0267 19.0866 52.0267 19.1199V20.0899Z" fill="black"/>
<path d="M57.5411 25.9999C57.4745 25.9999 57.4311 25.9666 57.4111 25.8999L57.1111 24.9199C57.0978 24.8932 57.0811 24.8799 57.0611 24.8799H54.6011C54.5811 24.8799 54.5645 24.8932 54.5511 24.9199L54.2611 25.8999C54.2411 25.9666 54.1978 25.9999 54.1311 25.9999H52.8611C52.8211 25.9999 52.7911 25.9899 52.7711 25.9699C52.7511 25.9432 52.7478 25.9066 52.7611 25.8599L54.9211 19.0999C54.9411 19.0333 54.9845 18.9999 55.0511 18.9999H56.6211C56.6878 18.9999 56.7311 19.0333 56.7511 19.0999L58.9111 25.8599C58.9178 25.8732 58.9211 25.8899 58.9211 25.9099C58.9211 25.9699 58.8845 25.9999 58.8111 25.9999H57.5411ZM54.9111 23.7299C54.9045 23.7699 54.9178 23.7899 54.9511 23.7899H56.7111C56.7511 23.7899 56.7645 23.7699 56.7511 23.7299L55.8511 20.7599C55.8445 20.7332 55.8345 20.7232 55.8211 20.7299C55.8078 20.7299 55.7978 20.7399 55.7911 20.7599L54.9111 23.7299Z" fill="black"/>
<path d="M64.7401 25.9999C64.6734 25.9999 64.6268 25.9699 64.6001 25.9099L63.3501 23.1399C63.3368 23.1132 63.3168 23.0999 63.2901 23.0999H62.3601C62.3268 23.0999 62.3101 23.1166 62.3101 23.1499V25.8799C62.3101 25.9132 62.2968 25.9432 62.2701 25.9699C62.2501 25.9899 62.2234 25.9999 62.1901 25.9999H61.0201C60.9868 25.9999 60.9568 25.9899 60.9301 25.9699C60.9101 25.9432 60.9001 25.9132 60.9001 25.8799V19.1199C60.9001 19.0866 60.9101 19.0599 60.9301 19.0399C60.9568 19.0133 60.9868 18.9999 61.0201 18.9999H63.8801C64.3068 18.9999 64.6801 19.0866 65.0001 19.2599C65.3267 19.4333 65.5767 19.6799 65.7501 19.9999C65.9301 20.3199 66.0201 20.6899 66.0201 21.1099C66.0201 21.5632 65.9067 21.9532 65.6801 22.2799C65.4534 22.5999 65.1367 22.8266 64.7301 22.9599C64.6967 22.9732 64.6868 22.9966 64.7001 23.0299L66.0601 25.8599C66.0734 25.8866 66.0801 25.9066 66.0801 25.9199C66.0801 25.9732 66.0434 25.9999 65.9701 25.9999H64.7401ZM62.3601 20.2099C62.3268 20.2099 62.3101 20.2266 62.3101 20.2599V21.9699C62.3101 22.0032 62.3268 22.0199 62.3601 22.0199H63.6701C63.9501 22.0199 64.1768 21.9366 64.3501 21.7699C64.5301 21.6032 64.6201 21.3866 64.6201 21.1199C64.6201 20.8532 64.5301 20.6366 64.3501 20.4699C64.1768 20.2966 63.9501 20.2099 63.6701 20.2099H62.3601Z" fill="black"/>
<path d="M72.6426 19.0799C72.676 19.0266 72.7226 18.9999 72.7826 18.9999H73.9526C73.986 18.9999 74.0126 19.0133 74.0326 19.0399C74.0593 19.0599 74.0726 19.0866 74.0726 19.1199V25.8799C74.0726 25.9132 74.0593 25.9432 74.0326 25.9699C74.0126 25.9899 73.986 25.9999 73.9526 25.9999H72.7826C72.7493 25.9999 72.7193 25.9899 72.6926 25.9699C72.6726 25.9432 72.6626 25.9132 72.6626 25.8799V21.4699C72.6626 21.4432 72.656 21.4299 72.6426 21.4299C72.6293 21.4299 72.616 21.4399 72.6026 21.4599L71.5426 23.1199C71.5093 23.1732 71.4626 23.1999 71.4026 23.1999H70.8126C70.7526 23.1999 70.706 23.1732 70.6726 23.1199L69.6126 21.4599C69.5993 21.4399 69.586 21.4332 69.5726 21.4399C69.5593 21.4399 69.5526 21.4532 69.5526 21.4799V25.8799C69.5526 25.9132 69.5393 25.9432 69.5126 25.9699C69.4926 25.9899 69.466 25.9999 69.4326 25.9999H68.2626C68.2293 25.9999 68.1993 25.9899 68.1726 25.9699C68.1526 25.9432 68.1426 25.9132 68.1426 25.8799V19.1199C68.1426 19.0866 68.1526 19.0599 68.1726 19.0399C68.1993 19.0133 68.2293 18.9999 68.2626 18.9999H69.4326C69.4926 18.9999 69.5393 19.0266 69.5726 19.0799L71.0726 21.4099C71.0926 21.4499 71.1126 21.4499 71.1326 21.4099L72.6426 19.0799Z" fill="black"/>
<path d="M81.251 20.0899C81.251 20.1233 81.2377 20.1533 81.211 20.1799C81.191 20.1999 81.1644 20.2099 81.131 20.2099H77.851C77.8177 20.2099 77.801 20.2266 77.801 20.2599V21.8099C77.801 21.8432 77.8177 21.8599 77.851 21.8599H80.001C80.0344 21.8599 80.061 21.8732 80.081 21.8999C80.1077 21.9199 80.121 21.9466 80.121 21.9799V22.9499C80.121 22.9832 80.1077 23.0132 80.081 23.0399C80.061 23.0599 80.0344 23.0699 80.001 23.0699H77.851C77.8177 23.0699 77.801 23.0866 77.801 23.1199V24.7399C77.801 24.7732 77.8177 24.7899 77.851 24.7899H81.131C81.1644 24.7899 81.191 24.8032 81.211 24.8299C81.2377 24.8499 81.251 24.8766 81.251 24.9099V25.8799C81.251 25.9132 81.2377 25.9432 81.211 25.9699C81.191 25.9899 81.1644 25.9999 81.131 25.9999H76.5111C76.4777 25.9999 76.4477 25.9899 76.4211 25.9699C76.4011 25.9432 76.3911 25.9132 76.3911 25.8799V19.1199C76.3911 19.0866 76.4011 19.0599 76.4211 19.0399C76.4477 19.0133 76.4777 18.9999 76.5111 18.9999H81.131C81.1644 18.9999 81.191 19.0133 81.211 19.0399C81.2377 19.0599 81.251 19.0866 81.251 19.1199V20.0899Z" fill="black"/>
<path d="M87.1709 25.9999C87.1042 25.9999 87.0575 25.9699 87.0309 25.9099L85.7809 23.1399C85.7675 23.1132 85.7475 23.0999 85.7209 23.0999H84.7909C84.7575 23.0999 84.7409 23.1166 84.7409 23.1499V25.8799C84.7409 25.9132 84.7275 25.9432 84.7009 25.9699C84.6809 25.9899 84.6542 25.9999 84.6209 25.9999H83.4509C83.4175 25.9999 83.3875 25.9899 83.3609 25.9699C83.3409 25.9432 83.3309 25.9132 83.3309 25.8799V19.1199C83.3309 19.0866 83.3409 19.0599 83.3609 19.0399C83.3875 19.0133 83.4175 18.9999 83.4509 18.9999H86.3109C86.7375 18.9999 87.1109 19.0866 87.4309 19.2599C87.7575 19.4333 88.0075 19.6799 88.1809 19.9999C88.3609 20.3199 88.4509 20.6899 88.4509 21.1099C88.4509 21.5632 88.3375 21.9532 88.1109 22.2799C87.8842 22.5999 87.5675 22.8266 87.1609 22.9599C87.1275 22.9732 87.1175 22.9966 87.1309 23.0299L88.4909 25.8599C88.5042 25.8866 88.5109 25.9066 88.5109 25.9199C88.5109 25.9732 88.4742 25.9999 88.4009 25.9999H87.1709ZM84.7909 20.2099C84.7575 20.2099 84.7409 20.2266 84.7409 20.2599V21.9699C84.7409 22.0032 84.7575 22.0199 84.7909 22.0199H86.1009C86.3809 22.0199 86.6075 21.9366 86.7809 21.7699C86.9609 21.6032 87.0509 21.3866 87.0509 21.1199C87.0509 20.8532 86.9609 20.6366 86.7809 20.4699C86.6075 20.2966 86.3809 20.2099 86.1009 20.2099H84.7909Z" fill="black"/>
<path d="M92.9734 26.0799C92.4401 26.0799 91.9734 25.9966 91.5734 25.8299C91.1734 25.6566 90.8634 25.4132 90.6434 25.0999C90.4301 24.7799 90.3234 24.4099 90.3234 23.9899V23.7699C90.3234 23.7366 90.3334 23.7099 90.3534 23.6899C90.3801 23.6632 90.4101 23.6499 90.4434 23.6499H91.5834C91.6168 23.6499 91.6434 23.6632 91.6634 23.6899C91.6901 23.7099 91.7034 23.7366 91.7034 23.7699V23.9199C91.7034 24.1866 91.8268 24.4132 92.0734 24.5999C92.3201 24.7799 92.6534 24.8699 93.0734 24.8699C93.4267 24.8699 93.6901 24.7966 93.8634 24.6499C94.0367 24.4966 94.1234 24.3099 94.1234 24.0899C94.1234 23.9299 94.0701 23.7966 93.9634 23.6899C93.8567 23.5766 93.7101 23.4799 93.5234 23.3999C93.3434 23.3132 93.0534 23.1966 92.6534 23.0499C92.2067 22.8966 91.8267 22.7399 91.5134 22.5799C91.2068 22.4199 90.9468 22.2032 90.7334 21.9299C90.5268 21.6499 90.4234 21.3066 90.4234 20.8999C90.4234 20.4999 90.5268 20.1499 90.7334 19.8499C90.9401 19.5499 91.2268 19.3199 91.5934 19.1599C91.9601 18.9999 92.3834 18.9199 92.8634 18.9199C93.3701 18.9199 93.8201 19.0099 94.2134 19.1899C94.6134 19.3699 94.9234 19.6233 95.1434 19.9499C95.3701 20.2699 95.4834 20.6432 95.4834 21.0699V21.2199C95.4834 21.2532 95.4701 21.2832 95.4434 21.3099C95.4234 21.3299 95.3967 21.3399 95.3634 21.3399H94.2134C94.1801 21.3399 94.1501 21.3299 94.1234 21.3099C94.1034 21.2832 94.0934 21.2532 94.0934 21.2199V21.1399C94.0934 20.8599 93.9767 20.6232 93.7434 20.4299C93.5167 20.2299 93.2034 20.1299 92.8034 20.1299C92.4901 20.1299 92.2434 20.1966 92.0634 20.3299C91.8901 20.4632 91.8034 20.6466 91.8034 20.8799C91.8034 21.0466 91.8534 21.1866 91.9534 21.2999C92.0601 21.4132 92.2134 21.5166 92.4134 21.6099C92.6201 21.6966 92.9367 21.8166 93.3634 21.9699C93.8367 22.1432 94.2067 22.2966 94.4734 22.4299C94.7467 22.5632 94.9901 22.7632 95.2034 23.0299C95.4234 23.2899 95.5334 23.6299 95.5334 24.0499C95.5334 24.6766 95.3034 25.1732 94.8434 25.5399C94.3834 25.8999 93.7601 26.0799 92.9734 26.0799Z" fill="black"/>
<path d="M107.104 18.9999C107.137 18.9999 107.164 19.0133 107.184 19.0399C107.21 19.0599 107.224 19.0866 107.224 19.1199V20.0999C107.224 20.1332 107.21 20.1632 107.184 20.1899C107.164 20.2099 107.137 20.2199 107.104 20.2199H105.314C105.28 20.2199 105.264 20.2366 105.264 20.2699V25.8799C105.264 25.9132 105.25 25.9432 105.224 25.9699C105.204 25.9899 105.177 25.9999 105.144 25.9999H103.974C103.94 25.9999 103.91 25.9899 103.884 25.9699C103.864 25.9432 103.854 25.9132 103.854 25.8799V20.2699C103.854 20.2366 103.837 20.2199 103.804 20.2199H102.064C102.03 20.2199 102 20.2099 101.974 20.1899C101.954 20.1632 101.944 20.1332 101.944 20.0999V19.1199C101.944 19.0866 101.954 19.0599 101.974 19.0399C102 19.0133 102.03 18.9999 102.064 18.9999H107.104Z" fill="black"/>
<path d="M113.063 25.9999C112.996 25.9999 112.95 25.9699 112.923 25.9099L111.673 23.1399C111.66 23.1132 111.64 23.0999 111.613 23.0999H110.683C110.65 23.0999 110.633 23.1166 110.633 23.1499V25.8799C110.633 25.9132 110.62 25.9432 110.593 25.9699C110.573 25.9899 110.546 25.9999 110.513 25.9999H109.343C109.31 25.9999 109.28 25.9899 109.253 25.9699C109.233 25.9432 109.223 25.9132 109.223 25.8799V19.1199C109.223 19.0866 109.233 19.0599 109.253 19.0399C109.28 19.0133 109.31 18.9999 109.343 18.9999H112.203C112.63 18.9999 113.003 19.0866 113.323 19.2599C113.65 19.4333 113.9 19.6799 114.073 19.9999C114.253 20.3199 114.343 20.6899 114.343 21.1099C114.343 21.5632 114.23 21.9532 114.003 22.2799C113.776 22.5999 113.46 22.8266 113.053 22.9599C113.02 22.9732 113.01 22.9966 113.023 23.0299L114.383 25.8599C114.396 25.8866 114.403 25.9066 114.403 25.9199C114.403 25.9732 114.366 25.9999 114.293 25.9999H113.063ZM110.683 20.2099C110.65 20.2099 110.633 20.2266 110.633 20.2599V21.9699C110.633 22.0032 110.65 22.0199 110.683 22.0199H111.993C112.273 22.0199 112.5 21.9366 112.673 21.7699C112.853 21.6032 112.943 21.3866 112.943 21.1199C112.943 20.8532 112.853 20.6366 112.673 20.4699C112.5 20.2966 112.273 20.2099 111.993 20.2099H110.683Z" fill="black"/>
<path d="M121.062 25.9999C120.996 25.9999 120.952 25.9666 120.932 25.8999L120.632 24.9199C120.619 24.8932 120.602 24.8799 120.582 24.8799H118.122C118.102 24.8799 118.086 24.8932 118.072 24.9199L117.782 25.8999C117.762 25.9666 117.719 25.9999 117.652 25.9999H116.382C116.342 25.9999 116.312 25.9899 116.292 25.9699C116.272 25.9432 116.269 25.9066 116.282 25.8599L118.442 19.0999C118.462 19.0333 118.506 18.9999 118.572 18.9999H120.142C120.209 18.9999 120.252 19.0333 120.272 19.0999L122.432 25.8599C122.439 25.8732 122.442 25.8899 122.442 25.9099C122.442 25.9699 122.406 25.9999 122.332 25.9999H121.062ZM118.432 23.7299C118.426 23.7699 118.439 23.7899 118.472 23.7899H120.232C120.272 23.7899 120.286 23.7699 120.272 23.7299L119.372 20.7599C119.366 20.7332 119.356 20.7232 119.342 20.7299C119.329 20.7299 119.319 20.7399 119.312 20.7599L118.432 23.7299Z" fill="black"/>
<path d="M124.541 25.9999C124.508 25.9999 124.478 25.9899 124.451 25.9699C124.431 25.9432 124.421 25.9132 124.421 25.8799V19.1199C124.421 19.0866 124.431 19.0599 124.451 19.0399C124.478 19.0133 124.508 18.9999 124.541 18.9999H127.041C127.541 18.9999 127.978 19.0899 128.351 19.2699C128.731 19.4433 129.024 19.6899 129.231 20.0099C129.438 20.3299 129.541 20.6999 129.541 21.1199V23.8799C129.541 24.2999 129.438 24.6699 129.231 24.9899C129.024 25.3099 128.731 25.5599 128.351 25.7399C127.978 25.9132 127.541 25.9999 127.041 25.9999H124.541ZM125.831 24.7399C125.831 24.7732 125.848 24.7899 125.881 24.7899H127.091C127.398 24.7899 127.644 24.6866 127.831 24.4799C128.024 24.2732 128.124 23.9966 128.131 23.6499V21.3499C128.131 21.0032 128.034 20.7266 127.841 20.5199C127.654 20.3132 127.401 20.2099 127.081 20.2099H125.881C125.848 20.2099 125.831 20.2266 125.831 20.2599V24.7399Z" fill="black"/>
<path d="M136.563 20.0899C136.563 20.1233 136.549 20.1533 136.523 20.1799C136.503 20.1999 136.476 20.2099 136.443 20.2099H133.163C133.129 20.2099 133.113 20.2266 133.113 20.2599V21.8099C133.113 21.8432 133.129 21.8599 133.163 21.8599H135.313C135.346 21.8599 135.373 21.8732 135.393 21.8999C135.419 21.9199 135.433 21.9466 135.433 21.9799V22.9499C135.433 22.9832 135.419 23.0132 135.393 23.0399C135.373 23.0599 135.346 23.0699 135.313 23.0699H133.163C133.129 23.0699 133.113 23.0866 133.113 23.1199V24.7399C133.113 24.7732 133.129 24.7899 133.163 24.7899H136.443C136.476 24.7899 136.503 24.8032 136.523 24.8299C136.549 24.8499 136.563 24.8766 136.563 24.9099V25.8799C136.563 25.9132 136.549 25.9432 136.523 25.9699C136.503 25.9899 136.476 25.9999 136.443 25.9999H131.823C131.789 25.9999 131.759 25.9899 131.733 25.9699C131.713 25.9432 131.703 25.9132 131.703 25.8799V19.1199C131.703 19.0866 131.713 19.0599 131.733 19.0399C131.759 19.0133 131.789 18.9999 131.823 18.9999H136.443C136.476 18.9999 136.503 19.0133 136.523 19.0399C136.549 19.0599 136.563 19.0866 136.563 19.1199V20.0899Z" fill="black"/>
<path d="M49.6433 35.9999C49.5983 35.9999 49.5708 35.9774 49.5608 35.9324L49.3958 35.0699C49.3958 35.0599 49.3908 35.0524 49.3808 35.0474C49.3758 35.0424 49.3683 35.0399 49.3583 35.0399H48.1358C48.1258 35.0399 48.1158 35.0424 48.1059 35.0474C48.1009 35.0524 48.0984 35.0599 48.0984 35.0699L47.9409 35.9324C47.9359 35.9774 47.9084 35.9999 47.8584 35.9999H47.2884C47.2634 35.9999 47.2434 35.9924 47.2284 35.9774C47.2184 35.9624 47.2159 35.9424 47.2209 35.9174L48.3383 30.8174C48.3483 30.7724 48.3758 30.7499 48.4208 30.7499H49.0883C49.1383 30.7499 49.1658 30.7724 49.1708 30.8174L50.2958 35.9174V35.9324C50.2958 35.9774 50.2733 35.9999 50.2283 35.9999H49.6433ZM48.2258 34.4399C48.2258 34.4599 48.2333 34.4699 48.2483 34.4699H49.2458C49.2608 34.4699 49.2683 34.4599 49.2683 34.4399L48.7583 31.7774C48.7533 31.7674 48.7483 31.7624 48.7433 31.7624C48.7383 31.7624 48.7333 31.7674 48.7283 31.7774L48.2258 34.4399Z" fill="#4F4F4F"/>
<path d="M67.6099 31.2974C67.6099 31.3474 67.5849 31.3724 67.5349 31.3724H65.8549C65.8349 31.3724 65.8249 31.3824 65.8249 31.4024V33.0299C65.8249 33.0499 65.8349 33.0599 65.8549 33.0599H66.8824C66.9324 33.0599 66.9574 33.0849 66.9574 33.1349V33.6074C66.9574 33.6574 66.9324 33.6824 66.8824 33.6824H65.8549C65.8349 33.6824 65.8249 33.6924 65.8249 33.7124V35.9249C65.8249 35.9749 65.7999 35.9999 65.7499 35.9999H65.1799C65.1299 35.9999 65.1049 35.9749 65.1049 35.9249V30.8249C65.1049 30.7749 65.1299 30.7499 65.1799 30.7499H67.5349C67.5849 30.7499 67.6099 30.7749 67.6099 30.8249V31.2974Z" fill="#4F4F4F"/>
<path d="M84.516 35.9999C84.471 35.9999 84.441 35.9799 84.426 35.9399L83.736 33.7049C83.731 33.6899 83.721 33.6824 83.706 33.6824H83.181C83.161 33.6824 83.151 33.6924 83.151 33.7124V35.9249C83.151 35.9749 83.126 35.9999 83.076 35.9999H82.506C82.456 35.9999 82.431 35.9749 82.431 35.9249V30.8249C82.431 30.7749 82.456 30.7499 82.506 30.7499H83.8485C84.1035 30.7499 84.3285 30.8124 84.5235 30.9374C84.7185 31.0624 84.8685 31.2399 84.9735 31.4699C85.0835 31.6949 85.1385 31.9524 85.1385 32.2424C85.1385 32.5574 85.0735 32.8324 84.9435 33.0674C84.8135 33.2974 84.636 33.4649 84.411 33.5699C84.396 33.5849 84.391 33.5999 84.396 33.6149L85.161 35.9174L85.1685 35.9474C85.1685 35.9824 85.146 35.9999 85.101 35.9999H84.516ZM83.181 31.3724C83.161 31.3724 83.151 31.3824 83.151 31.4024V33.0824C83.151 33.1024 83.161 33.1124 83.181 33.1124H83.736C83.941 33.1124 84.106 33.0349 84.231 32.8799C84.356 32.7199 84.4185 32.5099 84.4185 32.2499C84.4185 31.9799 84.356 31.7674 84.231 31.6124C84.106 31.4524 83.941 31.3724 83.736 31.3724H83.181Z" fill="#4F4F4F"/>
<path d="M100.154 35.9999C100.104 35.9999 100.079 35.9749 100.079 35.9249V30.8249C100.079 30.7749 100.104 30.7499 100.154 30.7499H100.724C100.774 30.7499 100.799 30.7749 100.799 30.8249V35.9249C100.799 35.9749 100.774 35.9999 100.724 35.9999H100.154Z" fill="#4F4F4F"/>
<path d="M117.222 36.0599C116.817 36.0599 116.49 35.9374 116.24 35.6924C115.995 35.4424 115.872 35.1124 115.872 34.7024V32.0399C115.872 31.6299 115.995 31.3024 116.24 31.0574C116.49 30.8124 116.817 30.6899 117.222 30.6899C117.632 30.6899 117.96 30.8124 118.205 31.0574C118.455 31.3024 118.58 31.6299 118.58 32.0399V32.1599C118.58 32.2099 118.555 32.2349 118.505 32.2349L117.935 32.2649C117.885 32.2649 117.86 32.2399 117.86 32.1899V31.9949C117.86 31.7899 117.8 31.6249 117.68 31.4999C117.565 31.3749 117.412 31.3124 117.222 31.3124C117.032 31.3124 116.88 31.3749 116.765 31.4999C116.65 31.6249 116.592 31.7899 116.592 31.9949V34.7549C116.592 34.9599 116.65 35.1249 116.765 35.2499C116.88 35.3749 117.032 35.4374 117.222 35.4374C117.412 35.4374 117.565 35.3749 117.68 35.2499C117.8 35.1249 117.86 34.9599 117.86 34.7549V34.5599C117.86 34.5099 117.885 34.4849 117.935 34.4849L118.505 34.5149C118.555 34.5149 118.58 34.5399 118.58 34.5899V34.7024C118.58 35.1124 118.455 35.4424 118.205 35.6924C117.96 35.9374 117.632 36.0599 117.222 36.0599Z" fill="#4F4F4F"/>
<path d="M135.629 35.9999C135.584 35.9999 135.557 35.9774 135.547 35.9324L135.382 35.0699C135.382 35.0599 135.377 35.0524 135.367 35.0474C135.362 35.0424 135.354 35.0399 135.344 35.0399H134.122C134.112 35.0399 134.102 35.0424 134.092 35.0474C134.087 35.0524 134.084 35.0599 134.084 35.0699L133.927 35.9324C133.922 35.9774 133.894 35.9999 133.844 35.9999H133.274C133.249 35.9999 133.229 35.9924 133.214 35.9774C133.204 35.9624 133.202 35.9424 133.207 35.9174L134.324 30.8174C134.334 30.7724 134.362 30.7499 134.407 30.7499H135.074C135.124 30.7499 135.152 30.7724 135.157 30.8174L136.282 35.9174V35.9324C136.282 35.9774 136.259 35.9999 136.214 35.9999H135.629ZM134.212 34.4399C134.212 34.4599 134.219 34.4699 134.234 34.4699H135.232C135.247 34.4699 135.254 34.4599 135.254 34.4399L134.744 31.7774C134.739 31.7674 134.734 31.7624 134.729 31.7624C134.724 31.7624 134.719 31.7674 134.714 31.7774L134.212 34.4399Z" fill="#4F4F4F"/>
</svg>
